<svg id="Layer_1" data-name="Layer 1" xmlns="http://www.w3.org/2000/svg" viewBox="0 0 424 116"><defs>
<style>.cls-1,.cls-4{fill:#10b981;}.cls-1,.cls-2{fill-rule:evenodd;}.cls-2,.cls-3{fill:#FFFFFF;}</style>
</defs><path class="cls-1" d="M111.8,200.73c-3,14.71-6.41,24.37-12.23,35.42-11.22,21.36-28.46,22.5-36.89,32.54,1-10.4,12.54-17.91,16.36-20.3-1.6.68-6,.27-9.51,2.22,11.34-7.9,17.58-15.31,19.91-25.14-33.63,7.78-60.51-1.82-76.25-21.26,12.33,7.94,31.73,13.83,52,13.82a71,71,0,0,1-9.45-6.22c16.69,1.53,36.48-3.61,56.08-11.08" transform="translate(-8.14 -153.13)"/><path class="cls-2" d="M8.52,187.93a115.15,115.15,0,0,1,.66-24.74c36.74-13.42,67-13.42,103.75,0a115.38,115.38,0,0,1,.43,27.2l-22.27-7.88-3.48-14.78a94.73,94.73,0,0,0-35.25-4.54l-3,4.33,17,11.93-18.15-6.54-26.6,3.16c22,18.35,46.1,24.72,71.25,24.49-28.35,5-56.59,5.75-84.37-12.63" transform="translate(-8.14 -153.13)"/><path class="cls-2" d="M60.55,250.76,53,244.6l-5.29,3.94Zm-17.11-3,19.18-14.28-26.87,9.38,3.68-5c-.48-1.44-1-2.94-1.4-4.5a67.9,67.9,0,0,1-24-18.67,168.76,168.76,0,0,0,8.11,20.11,49.9,49.9,0,0,0,12.44,16c4.25,3.76,12.69,7.78,18.92,12.15C51.49,256.6,47.91,252.29,43.44,247.73Z" transform="translate(-8.14 -153.13)"/><path class="cls-2" d="M282.66,226.47h4v18.39h7.42V248H282.66Zm-14.61,0h4v18.39h7.41V248H268.05Zm38,13.93h4a10.9,10.9,0,0,1-1.38,5.91c-.92,1.44-2.49,2.16-4.73,2.16-2.65,0-4.49-.69-5.52-2s-1.53-3.65-1.53-6.81v-4.57q0-5.1,1.61-7.06c1.07-1.32,2.78-2,5.11-2s3.77.58,4.75,1.75,1.46,3,1.46,5.44h-4a8.08,8.08,0,0,0-.41-3,1.52,1.52,0,0,0-1.54-1c-1.9,0-2.85,1.49-2.85,4.5v7a6.14,6.14,0,0,0,.73,3.45,2.52,2.52,0,0,0,2.16,1,1.65,1.65,0,0,0,1.57-1.08A9.72,9.72,0,0,0,306,240.4Z" transform="translate(-8.14 -153.13)"/><path class="cls-2" d="M328.58,235.81H431.25v2.87H328.58Zm-181.72,0H249.53v2.87H146.86Z" transform="translate(-8.14 -153.13)"/><path class="cls-3" d="M386.24,181.53h6.65v30.36h12.24v5.22H386.24Zm-24.13,0h6.64v30.36H381v5.22H362.11Zm-13.5,0h6.64v35.58h-6.64Zm-26.89,35.58V181.53h6.64v15.29h0l8.1-15.29h7.47L335.12,197h0l9.22,20.15h-7.47l-6.27-14h0L328.36,207v10.14Zm88-12.57h6.63v2q0,5.91,4.21,5.91,3.76,0,3.77-4.08a4.87,4.87,0,0,0-1.39-3.6,31.25,31.25,0,0,0-5.18-3.8,26.24,26.24,0,0,1-6-5,9,9,0,0,1-2-5.9q0-9.39,10.46-9.39,5.58,0,7.92,2.73t2.36,8.75H424v-1.19q0-4.94-3.82-4.94c-2.38,0-3.58,1.12-3.58,3.35a3.92,3.92,0,0,0,1.07,2.89,46.64,46.64,0,0,0,5.27,3.85,29.27,29.27,0,0,1,6.38,5.24,9.1,9.1,0,0,1,1.89,6,10.33,10.33,0,0,1-2.75,7.65q-2.76,2.76-7.9,2.76-10.83,0-10.84-10.55v-2.78Z" transform="translate(-8.14 -153.13)"/><path class="cls-4" d="M300.29,217.12q0-4.16,2.83-13.81A61.11,61.11,0,0,1,310,187.5H295.83v-5.22h20v4.77a65.06,65.06,0,0,0-6.42,16,70.23,70.23,0,0,0-2.3,14.07Z" transform="translate(-8.14 -153.13)"/><path class="cls-3" d="M283.71,191.41a5.37,5.37,0,0,0-.95-3.64,4.26,4.26,0,0,0-3.24-1h-4.83v9.77h4.83c2.79,0,4.19-1.71,4.19-5.11m-39.89,25.7V181.53H262.7v5.22H250.46v9h11.29V201H250.46v10.91H262.7v5.22ZM223.9,186.75V197h3.35a5.27,5.27,0,0,0,3.69-1.17c.84-.8,1.26-2.27,1.26-4.42a5.19,5.19,0,0,0-1-3.64c-.68-.71-2-1.06-3.94-1.06Zm-6.64-5.22h13.31a7.75,7.75,0,0,1,6.31,2.59q2.2,2.56,2.2,7.45,0,10.69-10.62,10.69H223.9v14.85h-6.64Zm-13.5,0h6.64v35.58h-6.64Zm-29.49,0h6.93l9,22.52h0V181.53h6.65v35.58h-6.93l-9-22h0v22h-6.64Zm-27.41,23h6.64v2q0,5.91,4.2,5.91,3.77,0,3.77-4.08a4.87,4.87,0,0,0-1.39-3.6,31.5,31.5,0,0,0-5.17-3.8,25.81,25.81,0,0,1-6-5,9,9,0,0,1-2-5.9q0-9.39,10.46-9.39,5.56,0,7.91,2.73c1.58,1.81,2.36,4.73,2.36,8.75h-6.45v-1.19c0-3.29-1.28-4.94-3.82-4.94q-3.58,0-3.59,3.35a3.92,3.92,0,0,0,1.07,2.89,47.65,47.65,0,0,0,5.27,3.85,29.27,29.27,0,0,1,6.38,5.24,9.1,9.1,0,0,1,1.9,6,10.34,10.34,0,0,1-2.76,7.65q-2.76,2.76-7.89,2.76-10.84,0-10.84-10.55v-2.78Zm144.91,12.57H284.5q-.72-1.85-.72-8.7,0-4.29-1.11-5.47c-.74-.8-2.59-1.2-5.57-1.2h-2.41v15.37h-6.64V181.53h12.69c3.55,0,6.09.77,7.6,2.29a8.49,8.49,0,0,1,2.29,6.28c0,5.2-1.86,8-5.6,8.56a6,6,0,0,1,4,2,7.11,7.11,0,0,1,1.32,4.56V208c0,4.75.49,7.56,1.45,8.42Z" transform="translate(-8.14 -153.13)"/></svg>